<svg width="142" height="159" viewBox="0 0 142 159" fill="none" xmlns="http://www.w3.org/2000/svg">
<g clip-path="url(#clip0_331_78)">
<path d="M140.729 47.0684C140.728 44.4212 140.163 42.0821 139.021 40.075C137.898 38.1003 136.218 36.4457 133.964 35.1374C115.358 24.3848 96.7339 13.6651 78.1339 2.9015C73.1194 9.23872e-06 68.2575 0.106335 63.2803 3.04948C55.8745 7.42638 18.7964 28.7173 7.74763 35.1314C3.19743 37.772 0.9833 41.8124 0.982206 47.0635C0.975098 68.6877 0.982206 90.3118 0.975098 111.936C0.975098 114.525 1.51701 116.819 2.60904 118.796C3.73169 120.83 5.43562 122.53 7.74162 123.868C18.7909 130.282 55.8739 151.571 63.2781 155.95C68.2575 158.895 73.1194 159 78.1355 156.098C96.7361 145.334 115.361 134.614 133.97 123.861C136.276 122.524 137.98 120.823 139.103 118.791C140.193 116.813 140.736 114.52 140.736 111.93C140.736 111.93 140.736 68.6931 140.729 47.0684Z" fill="#A179DC"/>
<path d="M71.0692 79.2891L2.60889 118.796C3.73154 120.83 5.43547 122.53 7.74147 123.868C18.7908 130.282 55.8738 151.572 63.2779 155.95C68.2574 158.895 73.1193 159 78.1354 156.098C96.7359 145.334 115.361 134.614 133.97 123.862C136.276 122.524 137.98 120.823 139.102 118.791L71.0692 79.2891Z" fill="#280068"/>
<path d="M140.729 47.0683C140.728 44.4212 140.163 42.082 139.021 40.075L71.0693 79.2895L139.103 118.791C140.193 116.813 140.735 114.52 140.736 111.93C140.736 111.93 140.736 68.6931 140.729 47.0683Z" fill="#390091"/>
<path d="M111.376 64.52V71.9047H118.744V64.52H122.429V71.9047H129.797V75.5971H122.429V82.9813H129.797V86.6736H122.429V94.0583H118.744V86.6736H111.376V94.0583H107.692V86.6736H100.325V82.9813H107.692V75.5971H100.325V71.9047H107.692V64.52H111.376ZM118.744 75.5965H111.376V82.9813H118.744V75.5965Z" fill="white"/>
<path d="M71.2198 27.4332C90.4377 27.4332 107.216 37.8937 116.203 53.4425L116.116 53.2928L93.5043 66.3413C89.0498 58.7818 80.8834 53.6798 71.5145 53.5745L71.2192 53.5729C56.9332 53.5729 45.3513 65.1811 45.3513 79.4994C45.3466 84.0124 46.5229 88.4477 48.763 92.3627C53.2218 100.164 61.6042 105.427 71.2198 105.427C80.8949 105.427 89.3249 100.098 93.7608 92.2125L93.6531 92.4016L116.23 105.51C107.341 120.928 90.7926 131.356 71.7983 131.564L71.2198 131.567C51.9411 131.567 35.1151 121.042 26.1503 105.411C21.774 97.7798 19.27 88.9334 19.27 79.4994C19.27 50.7443 42.528 27.4326 71.2192 27.4326L71.2198 27.4332Z" fill="white"/>
</g>
<defs>
<clipPath id="clip0_331_78">
<rect width="141" height="159" fill="white" transform="translate(0.355469)"/>
</clipPath>
</defs>
</svg>
