<svg width="185" height="185" viewBox="0 0 185 185" fill="none" xmlns="http://www.w3.org/2000/svg">
<path fill-rule="evenodd" clip-rule="evenodd" d="M49.5311 0.460205C22.5161 0.460205 0.677124 22.4602 0.677124 49.6772C0.677124 71.4332 14.6701 89.8492 34.0821 96.3672C36.5091 96.8572 37.3981 95.3082 37.3981 94.0052C37.3981 92.8642 37.3181 88.9532 37.3181 84.8782C23.7281 87.8122 20.8981 79.0112 20.8981 79.0112C18.7141 73.3072 15.4781 71.8412 15.4781 71.8412C11.0301 68.8262 15.8021 68.8262 15.8021 68.8262C20.7361 69.1522 23.3251 73.8782 23.3251 73.8782C27.6921 81.3742 34.7291 79.2562 37.5601 77.9522C37.9641 74.7742 39.2591 72.5742 40.6341 71.3522C29.7951 70.2112 18.3911 65.9742 18.3911 47.0692C18.3911 41.6912 20.3311 37.2912 23.4051 33.8692C22.9201 32.6472 21.2211 27.5942 23.8911 20.8312C23.8911 20.8312 28.0161 19.5272 37.3171 25.8832C41.2992 24.8059 45.4059 24.2578 49.5311 24.2532C53.6561 24.2532 57.8611 24.8242 61.7441 25.8832C71.0461 19.5272 75.1711 20.8312 75.1711 20.8312C77.8411 27.5942 76.1411 32.6472 75.6561 33.8692C78.8111 37.2912 80.6711 41.6912 80.6711 47.0692C80.6711 65.9742 69.2671 70.1292 58.3471 71.3522C60.1271 72.9002 61.6631 75.8332 61.6631 80.4782C61.6631 87.0782 61.5831 92.3752 61.5831 94.0042C61.5831 95.3082 62.4731 96.8572 64.8991 96.3682C84.3111 89.8482 98.3041 71.4332 98.3041 49.6772C98.3841 22.4602 76.4651 0.460205 49.5311 0.460205Z" fill="#24292F"/>
</svg>
