<svg width="184" height="184" viewBox="0 0 184 184" fill="none" xmlns="http://www.w3.org/2000/svg">
<path d="M22.0831 0.882324C10.0952 0.882324 0.283081 10.6944 0.283081 22.6823V162.202C0.283081 174.19 10.0952 184.002 22.0831 184.002H161.603C173.591 184.002 183.403 174.19 183.403 162.202V22.6823C183.403 10.6944 173.591 0.882324 161.603 0.882324H22.0831ZM22.0831 9.60232H161.603C168.878 9.60232 174.683 15.4077 174.683 22.6823V162.202C174.683 169.477 168.878 175.282 161.603 175.282H22.0831C14.8085 175.282 9.00308 169.477 9.00308 162.202V22.6823C9.00308 15.4077 14.8085 9.60232 22.0831 9.60232ZM43.8831 31.4534C39.1079 31.4534 34.8109 32.8807 31.6291 35.5579C28.4473 38.2352 26.4942 42.2348 26.4942 46.5176C26.4942 54.6585 33.5555 61.005 42.5376 61.6328L42.5546 61.6413C42.9826 61.7872 43.4309 61.8648 43.8831 61.8712C53.7934 61.8712 61.272 54.9292 61.272 46.5176C61.2712 46.4409 61.2684 46.3642 61.2635 46.2876C60.8198 38.0026 53.4334 31.4534 43.8831 31.4534ZM43.8831 40.0712C49.9532 40.0712 52.3501 42.7821 52.6116 46.6283C52.5586 50.3615 50.2491 53.2534 43.8831 53.2534C37.8427 53.2534 35.112 50.16 35.112 46.5176C35.112 44.6963 35.7765 43.3239 37.1728 42.149C38.569 40.9742 40.8102 40.0712 43.8831 40.0712ZM30.8031 66.2823C29.6468 66.2824 28.5379 66.7418 27.7202 67.5595C26.9026 68.3771 26.4432 69.486 26.4431 70.6423V153.482C26.4432 154.639 26.9026 155.748 27.7202 156.565C28.5379 157.383 29.6468 157.842 30.8031 157.842H56.9631C58.1194 157.842 59.2283 157.383 60.0459 156.565C60.8636 155.748 61.323 154.639 61.3231 153.482V127.91V70.6423C61.323 69.486 60.8636 68.3771 60.0459 67.5595C59.2283 66.7418 58.1194 66.2824 56.9631 66.2823H30.8031ZM70.0431 66.2823C68.8868 66.2824 67.7779 66.7418 66.9602 67.5595C66.1426 68.3771 65.6832 69.486 65.6831 70.6423V153.482C65.6832 154.639 66.1426 155.748 66.9602 156.565C67.7779 157.383 68.8868 157.842 70.0431 157.842H96.2031C97.3594 157.842 98.4683 157.383 99.2859 156.565C100.104 155.748 100.563 154.639 100.563 153.482V109.882C100.563 106.265 101.55 102.667 103.288 100.311C105.026 97.9548 107.218 96.541 111.386 96.615C115.684 96.6889 117.959 98.1612 119.681 100.473C121.402 102.784 122.363 106.249 122.363 109.882V153.482C122.363 154.639 122.823 155.748 123.64 156.565C124.458 157.383 125.567 157.842 126.723 157.842H152.883C154.039 157.842 155.148 157.383 155.966 156.565C156.784 155.748 157.243 154.639 157.243 153.482V106.663C157.243 93.7511 153.418 83.5232 146.863 76.6033C140.307 69.6833 131.188 66.2823 121.546 66.2823C112.381 66.2823 105.406 69.3556 100.563 72.4902V70.6423C100.563 69.486 100.104 68.3771 99.2859 67.5595C98.4683 66.7418 97.3594 66.2824 96.2031 66.2823H70.0431ZM35.1631 75.0023H52.6031V127.91V149.122H35.1631V75.0023ZM74.4031 75.0023H91.8431V81.8063C91.8433 82.7205 92.131 83.6115 92.6653 84.3534C93.1996 85.0952 93.9536 85.6504 94.8206 85.9403C95.6876 86.2303 96.6238 86.2404 97.4969 85.9692C98.37 85.698 99.1358 85.1593 99.686 84.4291C99.686 84.4291 106.533 75.0023 121.546 75.0023C129.19 75.0023 135.745 77.5424 140.535 82.5983C145.325 87.6541 148.523 95.4431 148.523 106.663V149.122H131.083V109.882C131.083 104.796 129.864 99.5365 126.68 95.261C123.497 90.9855 118.142 88.0085 111.54 87.895C104.904 87.7771 99.4623 90.816 96.2712 95.1418C93.0801 99.4676 91.8431 104.78 91.8431 109.882V149.122H74.4031V75.0023Z" fill="white"/>
</svg>
