<svg width="151" height="151" viewBox="0 0 151 151" fill="none" xmlns="http://www.w3.org/2000/svg">
<path d="M70.9396 0.921013C70.6167 0.950357 69.5895 1.05306 68.665 1.12642C47.3432 3.04848 27.3714 14.5515 14.7221 32.2315C7.67842 42.0619 3.17339 53.2127 1.47116 65.0238C0.869514 69.1467 0.796143 70.3645 0.796143 75.9546C0.796143 81.5447 0.869514 82.7625 1.47116 86.8854C5.55063 115.071 25.6105 138.752 52.8167 147.526C57.6886 149.096 62.8246 150.167 68.665 150.812C70.9396 151.062 80.7714 151.062 83.0459 150.812C93.1272 149.697 101.668 147.203 110.091 142.904C111.382 142.244 111.632 142.068 111.455 141.921C111.338 141.833 105.835 134.453 99.2317 125.532L87.2281 109.319L72.1869 87.0615C63.9105 74.8249 57.1016 64.8184 57.0429 64.8184C56.9842 64.8038 56.9256 74.6928 56.8962 86.7681C56.8522 107.911 56.8375 108.762 56.5734 109.261C56.1918 109.979 55.8983 110.273 55.282 110.596C54.8124 110.83 54.4016 110.874 52.1857 110.874H49.6471L48.972 110.449C48.5318 110.17 48.209 109.803 47.9889 109.378L47.6807 108.718L47.7101 79.2999L47.7541 49.8675L48.209 49.2953C48.4438 48.9871 48.9427 48.591 49.2949 48.4002C49.8965 48.1068 50.1313 48.0775 52.67 48.0775C55.6636 48.0775 56.1625 48.1948 56.9402 49.0458C57.1603 49.2806 65.3046 61.5465 75.0484 76.3214C84.7921 91.0963 98.1165 111.271 104.661 121.174L116.547 139.177L117.149 138.781C122.476 135.318 128.111 130.388 132.572 125.253C142.066 114.352 148.185 101.059 150.24 86.8854C150.841 82.7625 150.915 81.5447 150.915 75.9546C150.915 70.3645 150.841 69.1467 150.24 65.0238C146.16 36.8386 126.1 13.1576 98.8942 4.38365C94.0957 2.8284 88.989 1.75733 83.266 1.11175C81.8573 0.965029 72.1575 0.803635 70.9396 0.921013ZM101.668 46.3168C102.372 46.6689 102.944 47.3439 103.15 48.0481C103.267 48.4296 103.297 56.5873 103.267 74.9716L103.223 101.352L98.5714 94.2215L93.9049 87.0908V67.9143C93.9049 55.5163 93.9636 48.547 94.0517 48.2095C94.2865 47.3879 94.8001 46.7423 95.5044 46.3608C96.1061 46.0527 96.3262 46.0234 98.6301 46.0234C100.802 46.0234 101.183 46.0527 101.668 46.3168Z" fill="black"/>
</svg>
