<svg width="137" height="151" viewBox="0 0 137 151" fill="none" xmlns="http://www.w3.org/2000/svg">
<g clip-path="url(#clip0_331_115)">
<path d="M62.794 2.28403C66.4917 0.164346 71.3081 0.154772 75.0026 2.28403C93.5897 12.8021 112.183 23.3037 130.766 33.8282C134.262 35.8 136.6 39.6957 136.564 43.7292V107.01C136.59 111.211 134.021 115.199 130.333 117.127C111.808 127.587 93.2912 138.06 74.7684 148.52C70.9942 150.681 66.0812 150.514 62.4248 148.176C56.8708 144.952 51.3071 141.743 45.7525 138.522C44.6175 137.844 43.338 137.305 42.5365 136.203C43.2451 135.246 44.5118 135.127 45.5412 134.71C47.8596 133.971 49.9889 132.786 52.1187 131.636C52.6573 131.267 53.3148 131.409 53.8311 131.739C58.5805 134.466 63.2879 137.272 68.0533 139.973C69.0699 140.561 70.0992 139.781 70.9681 139.296C89.1478 129.006 107.35 118.755 125.526 108.462C126.2 108.137 126.572 107.421 126.517 106.682C126.53 85.8074 126.52 64.9287 126.524 44.0537C126.601 43.2154 126.116 42.4447 125.359 42.1016C106.898 31.6893 88.4456 21.2612 69.9871 10.8463C69.6673 10.6261 69.2885 10.5079 68.9004 10.5074C68.5123 10.5068 68.1331 10.6238 67.8127 10.8431C49.3542 21.2612 30.9052 31.6989 12.4467 42.1106C11.6925 42.4542 11.1864 43.2122 11.2761 44.0537C11.2793 64.9287 11.2761 85.8074 11.2761 106.686C11.2441 107.046 11.3232 107.408 11.5027 107.722C11.6821 108.036 11.9534 108.288 12.28 108.443C17.2057 111.24 22.1378 114.018 27.0667 116.805C29.8435 118.302 33.2528 119.191 36.3122 118.045C39.0119 117.075 40.9044 114.316 40.8528 111.445C40.8783 90.692 40.8401 69.9356 40.872 49.1856C40.8045 48.2644 41.6772 47.5032 42.5716 47.5899C44.9383 47.5739 47.3082 47.558 49.675 47.5963C50.6629 47.5739 51.3427 48.5659 51.2206 49.4941C51.211 70.3787 51.2461 91.2638 51.2046 112.148C51.211 117.714 48.9277 123.771 43.7868 126.494C37.4536 129.78 29.6257 129.083 23.369 125.932C17.9525 123.225 12.7835 120.03 7.46311 117.129C3.76589 115.213 1.20954 111.208 1.23556 107.011V43.7292C1.19679 39.6122 3.62779 35.6457 7.23207 33.7026C25.7548 23.234 44.2744 12.7574 62.794 2.28403Z" fill="#8CC84B"/>
<path d="M78.9532 46.1194C87.0318 45.5986 95.6802 45.8108 102.95 49.7965C108.578 52.8507 111.699 59.2608 111.798 65.5231C111.641 66.3678 110.759 66.8337 109.954 66.7757C107.61 66.7725 105.266 66.8077 102.922 66.7598C101.927 66.7981 101.35 65.88 101.225 64.9997C100.551 62.0034 98.9196 59.0358 96.1035 57.5906C91.7806 55.4231 86.7683 55.5321 82.0545 55.5773C78.6133 55.7603 74.9129 56.0587 71.9975 58.0853C69.7593 59.6204 69.0795 62.7194 69.8783 65.2151C70.6314 67.0071 72.697 67.5853 74.3871 68.1183C84.1228 70.6683 94.4395 70.4146 103.989 73.7704C107.943 75.1385 111.811 77.7981 113.164 81.9438C114.934 87.5002 114.158 94.1417 110.211 98.6023C107.01 102.273 102.348 104.271 97.6975 105.356C91.5114 106.737 85.0915 106.773 78.8093 106.159C72.902 105.485 66.7547 103.931 62.1944 99.8997C58.2948 96.5087 56.3901 91.2252 56.5792 86.1257C56.6244 85.2646 57.4806 84.664 58.3043 84.7348C60.6647 84.7156 63.0251 84.7093 65.3854 84.738C66.3282 84.6704 67.0272 85.4864 67.0755 86.3763C67.511 89.2311 68.5823 92.2273 71.068 93.9199C75.8652 97.0194 81.8846 96.8071 87.3775 96.8938C91.9283 96.6917 97.0367 96.6305 100.75 93.6183C102.71 91.9002 103.29 89.0257 102.761 86.5529C102.187 84.4651 100.006 83.4922 98.1335 82.8561C88.5227 79.8114 78.0907 80.9162 68.5728 77.4731C64.7088 76.1055 60.9722 73.5199 59.4877 69.5444C57.4163 63.9178 58.3654 56.9582 62.7266 52.6481C66.9788 48.3608 73.1171 46.7103 78.9532 46.1194Z" fill="#8CC84B"/>
</g>
<defs>
<clipPath id="clip0_331_115">
<rect width="136" height="150" fill="white" transform="translate(0.914795 0.379883)"/>
</clipPath>
</defs>
</svg>
