<?xml version="1.0" standalone="no"?>
<!DOCTYPE svg PUBLIC "-//W3C//DTD SVG 20010904//EN"
 "http://www.w3.org/TR/2001/REC-SVG-20010904/DTD/svg10.dtd">
<svg version="1.0" xmlns="http://www.w3.org/2000/svg"
 width="1008.000000pt" height="1008.000000pt" viewBox="0 0 1008.000000 1008.000000"
 preserveAspectRatio="xMidYMid meet">
<metadata>
Created by potrace 1.14, written by Peter Selinger 2001-2017
</metadata>
<g transform="translate(0.000000,1008.000000) scale(0.100000,-0.100000)"
fill="#000000" stroke="none">
<path d="M7135 8067 c-22 -8 -44 -15 -50 -16 -5 -2 -20 -7 -33 -12 -13 -5 -26
-9 -29 -9 -7 0 -208 -101 -278 -140 -123 -69 -393 -247 -480 -317 -5 -5 -53
-43 -105 -84 -100 -80 -106 -86 -210 -179 -151 -135 -352 -344 -455 -475 -22
-27 -44 -55 -50 -61 -30 -34 -170 -232 -209 -296 -33 -54 -43 -63 -68 -63 -23
0 -33 8 -55 45 -15 25 -44 68 -65 97 -21 29 -38 55 -38 57 0 7 -148 201 -175
230 -5 6 -32 38 -60 71 -134 161 -368 390 -545 535 -30 25 -57 47 -60 50 -29
34 -390 287 -475 334 -16 9 -45 25 -63 36 -131 79 -306 155 -377 165 -25 3
-50 0 -67 -9 -24 -13 -32 -13 -54 -2 -14 8 -40 12 -59 10 -72 -7 -274 -90
-417 -172 -21 -12 -53 -30 -70 -40 -145 -82 -464 -303 -580 -400 -186 -157
-245 -211 -367 -332 -64 -63 -148 -150 -186 -194 -39 -43 -75 -84 -80 -90 -22
-23 -173 -223 -205 -271 -19 -27 -36 -52 -39 -55 -3 -3 -12 -16 -20 -30 -8
-14 -31 -52 -51 -85 -51 -82 -125 -227 -125 -242 0 -6 -27 -31 -60 -54 -225
-160 -464 -388 -575 -548 -14 -20 -31 -42 -38 -49 -6 -7 -12 -17 -12 -22 0 -5
-7 -15 -15 -23 -22 -23 -119 -211 -155 -301 -53 -136 -71 -227 -75 -381 -2
-77 1 -162 6 -190 6 -27 13 -63 16 -79 2 -16 18 -67 34 -113 53 -148 120 -255
234 -369 157 -158 360 -264 600 -314 83 -18 117 -23 240 -36 109 -12 497 -5
581 10 10 2 42 7 69 10 105 15 121 18 165 28 62 14 81 17 111 23 44 8 283 86
293 96 6 5 16 9 24 9 26 0 299 144 322 170 3 3 32 27 65 52 74 56 174 161 222
234 20 30 37 54 39 54 2 0 1 -169 -1 -375 l-5 -375 93 0 93 0 1 78 c1 42 4
228 7 412 3 184 8 468 11 630 2 162 7 428 10 590 3 162 7 426 10 585 3 160 7
414 10 565 5 294 13 767 20 1179 2 139 6 255 9 258 8 9 118 -41 238 -107 90
-50 318 -193 353 -222 6 -5 46 -36 90 -69 44 -32 87 -65 95 -72 355 -288 644
-593 850 -897 13 -19 27 -37 30 -40 9 -9 30 -45 36 -62 4 -10 9 -18 13 -18 9
0 45 -72 42 -84 -7 -30 0 -106 13 -138 23 -53 69 -82 132 -83 60 0 97 22 128
74 21 37 29 114 14 147 -9 20 -1 37 67 141 43 65 81 120 86 121 5 2 9 8 9 13
0 5 6 17 14 26 250 314 406 478 657 694 13 11 34 29 46 39 11 10 79 61 150
114 70 53 139 105 152 115 13 10 86 57 161 104 169 106 353 201 473 246 31 12
30 13 28 -74 -1 -27 -1 -61 0 -75 0 -14 1 -29 1 -35 -1 -5 -3 -255 -6 -555 -3
-300 -8 -759 -11 -1020 -3 -261 -7 -709 -10 -995 -3 -286 -7 -739 -10 -1007
-2 -267 -5 -490 -6 -495 -1 -4 -1 -24 0 -44 l1 -35 68 0 c55 0 68 3 74 18 5
11 18 18 35 18 l28 0 1 143 c1 135 9 599 20 1192 2 149 7 398 9 555 8 526 15
943 20 1180 4 264 16 987 19 1155 1 61 6 111 11 112 32 9 251 -96 407 -195
276 -173 492 -346 733 -587 137 -138 164 -167 260 -281 84 -99 92 -109 133
-167 20 -29 39 -54 43 -57 14 -11 170 -252 223 -345 32 -55 61 -107 66 -115
17 -27 100 -199 100 -205 0 -4 -22 15 -49 42 -138 136 -415 336 -614 443 -42
23 -76 49 -87 68 -39 63 -103 83 -167 51 -91 -45 -92 -190 -2 -236 50 -26 119
-11 156 35 10 12 19 10 65 -15 101 -56 133 -75 149 -89 8 -8 19 -14 22 -14 13
0 193 -131 268 -194 219 -186 356 -328 412 -426 46 -81 187 -464 252 -685 72
-245 140 -543 164 -725 6 -41 13 -95 17 -120 13 -91 14 -108 18 -265 3 -88 1
-180 -4 -205 -9 -43 -8 -46 23 -73 17 -15 37 -27 44 -27 25 0 38 83 38 255 0
152 -7 267 -20 336 -3 13 -7 46 -10 72 -2 27 -10 76 -16 110 -6 34 -13 71 -14
83 -19 147 -180 745 -234 869 -5 11 -29 76 -54 145 -80 220 -150 381 -274 630
-113 228 -155 302 -252 454 -42 65 -80 125 -86 135 -5 9 -12 18 -15 21 -3 3
-32 41 -64 85 -59 79 -158 203 -226 280 -59 67 -351 357 -414 410 -32 28 -75
64 -95 81 -92 79 -351 264 -452 323 -150 89 -214 122 -354 181 -83 35 -146 39
-174 11 -18 -18 -19 -18 -39 1 -25 25 -94 32 -147 15z m-4065 -297 c-1 -85 -3
-272 -5 -415 -4 -309 -16 -1303 -20 -1670 -2 -143 -4 -262 -5 -265 -2 -3 -1
-9 0 -15 1 -5 2 -39 1 -75 -1 -36 -3 -212 -5 -391 -2 -180 -7 -332 -10 -338
-4 -6 -10 -24 -12 -39 -9 -45 -79 -186 -125 -248 -113 -155 -306 -300 -519
-389 -83 -35 -228 -86 -260 -91 -14 -3 -36 -9 -50 -14 -30 -11 -217 -48 -280
-55 -25 -3 -55 -7 -67 -9 -122 -24 -542 -24 -678 0 -16 3 -41 7 -55 9 -97 13
-263 66 -363 117 -175 88 -331 240 -415 406 -35 68 -78 198 -89 269 -9 57 -9
261 0 318 28 181 146 431 289 614 77 98 86 108 189 210 284 284 650 509 1082
662 l107 38 36 -21 c69 -40 161 -11 184 58 13 39 9 98 -9 132 -12 23 -76 59
-101 57 -8 -1 -25 -3 -37 -3 -32 -3 -72 -42 -87 -87 -14 -41 -10 -38 -151 -89
-160 -57 -353 -144 -479 -215 -21 -12 -40 -20 -43 -17 -2 2 7 22 21 45 14 22
26 43 26 45 0 7 152 233 189 281 30 39 41 54 98 125 55 68 182 207 265 290
117 117 181 176 304 280 106 90 289 227 394 296 41 27 77 52 80 55 3 3 57 36
120 73 63 37 122 72 130 77 13 8 166 83 225 110 42 19 101 38 114 36 10 -2 13
-33 11 -157z"/>
<path d="M7585 2792 c-16 -2 -48 -8 -70 -14 -22 -6 -46 -12 -52 -14 -21 -4
-78 -42 -108 -71 -83 -82 -97 -278 -25 -355 11 -12 20 -25 20 -29 0 -13 100
-71 147 -85 65 -20 205 -23 281 -7 135 28 224 104 247 211 17 82 0 179 -45
242 -28 39 -104 88 -166 106 -51 15 -170 23 -229 16z m136 -112 c40 -11 86
-51 102 -90 14 -36 16 -130 3 -166 -27 -74 -74 -107 -160 -110 -88 -3 -149 32
-176 101 -18 44 -15 137 6 180 17 37 61 77 90 81 9 1 18 4 20 7 8 8 80 6 115
-3z"/>
<path d="M250 2775 c0 -7 4 -25 9 -41 22 -68 75 -240 77 -249 1 -5 13 -48 28
-94 15 -46 28 -92 29 -102 2 -10 6 -22 10 -25 4 -4 7 -16 7 -26 0 -22 -8 -20
119 -22 95 -1 104 0 111 19 8 19 34 104 36 115 0 3 3 12 7 20 6 16 47 155 53
180 2 8 10 33 18 55 l14 40 13 -45 c7 -25 13 -47 14 -50 0 -3 16 -52 33 -110
18 -58 40 -130 49 -160 9 -30 21 -58 26 -61 4 -3 54 -5 109 -5 l101 2 14 39
c8 22 29 92 48 155 19 63 52 173 73 243 22 70 36 129 33 130 -18 8 -176 1
-177 -8 0 -10 -26 -96 -84 -280 -16 -49 -30 -99 -32 -110 -2 -11 -18 27 -35
85 -64 214 -90 298 -96 307 -6 10 -172 11 -183 1 -3 -3 -7 -12 -8 -20 -2 -13
-40 -141 -56 -188 -4 -14 -18 -60 -31 -102 -12 -43 -26 -78 -29 -78 -4 0 -16
33 -27 73 -12 39 -38 128 -60 197 l-39 124 -87 1 c-60 1 -87 -3 -87 -10z"/>
<path d="M1480 2782 c-6 -2 -10 -102 -10 -286 l0 -282 248 2 c136 1 253 2 260
3 8 1 12 19 12 54 l0 53 -162 0 -163 -1 -3 65 -3 65 148 0 148 0 3 58 3 58
-148 -2 -148 -2 -3 51 c-3 44 0 52 15 53 10 1 81 2 158 3 l140 1 0 55 0 55
-242 0 c-133 0 -247 -1 -253 -3z"/>
<path d="M2216 2780 c-2 -5 0 -536 3 -556 2 -15 403 -11 460 5 96 27 143 85
135 164 -6 52 -29 84 -78 109 -36 18 -38 22 -21 28 11 4 31 20 44 34 33 35 35
103 5 143 -18 24 -75 64 -89 62 -3 0 -24 3 -48 7 -47 9 -407 12 -411 4z m351
-108 c12 -7 25 -21 28 -32 9 -28 -19 -70 -48 -71 -60 -4 -123 -4 -133 -1 -13
4 -15 104 -2 113 14 10 132 3 155 -9z m-1 -211 c26 -2 58 -39 60 -69 2 -32
-22 -63 -54 -69 -34 -7 -162 -10 -163 -4 -6 28 -4 137 2 141 6 4 110 5 155 1z"/>
<path d="M3449 2776 c-3 -31 -4 -543 -1 -552 2 -7 57 -10 175 -9 242 4 310 16
388 69 89 60 121 120 120 226 0 141 -115 244 -297 266 -99 12 -384 11 -385 0z
m337 -111 c54 -8 118 -50 137 -90 18 -37 16 -116 -3 -156 -26 -56 -100 -86
-230 -92 l-55 -3 0 170 c-1 94 3 173 7 176 8 6 83 4 144 -5z"/>
<path d="M4343 2783 c-6 -2 -9 -406 -4 -543 l1 -26 255 0 c140 0 256 3 256 6
1 3 2 28 3 56 l3 50 -160 0 c-87 -1 -161 3 -164 7 -10 17 -9 117 1 118 6 1 63
3 126 4 191 4 170 -3 167 58 l-3 52 -142 1 c-79 1 -146 4 -149 8 -11 11 -9 96
2 97 6 1 77 2 160 3 l150 1 2 47 c1 28 -3 51 -10 55 -11 7 -475 12 -494 6z"/>
<path d="M5009 2779 c-5 -3 24 -75 67 -165 42 -87 89 -188 106 -224 16 -36 42
-90 58 -120 l29 -55 110 -1 111 0 19 40 c11 23 45 95 76 161 31 66 78 165 105
220 26 55 50 108 53 118 4 9 8 21 9 25 2 4 -38 7 -89 7 l-91 1 -36 -76 c-52
-112 -105 -228 -133 -290 l-25 -55 -18 40 c-72 153 -114 247 -133 290 -37 90
-37 89 -128 90 -44 0 -85 -2 -90 -6z"/>
<path d="M5919 2775 c-3 -29 -5 -542 -2 -550 2 -7 92 -11 261 -10 l257 0 1 45
c0 25 -1 50 -3 56 -2 6 -61 10 -166 10 l-162 0 0 64 0 65 150 0 150 0 0 55 0
55 -135 2 c-74 1 -142 2 -151 2 -22 1 -22 101 1 102 8 0 80 1 160 2 l145 2 0
55 0 55 -253 0 c-162 0 -252 -3 -253 -10z"/>
<path d="M6660 2500 l0 -286 258 1 257 0 3 56 3 55 -163 0 -163 -1 -5 230 -5
230 -92 0 -93 0 0 -285z"/>
<path d="M8236 2780 c-2 -3 -2 -131 -2 -285 l1 -280 88 0 c48 -1 91 3 94 8 3
6 6 50 6 98 0 49 3 89 6 89 221 5 273 13 331 53 92 62 99 204 13 265 -65 46
-117 54 -331 56 -112 1 -205 -1 -206 -4z m371 -120 c28 -18 37 -55 22 -91 -14
-36 -62 -52 -144 -47 l-60 3 -1 77 -1 77 81 -3 c47 -1 90 -8 103 -16z"/>
<path d="M9029 2775 c-1 -14 -1 -503 0 -535 1 -26 2 -26 86 -26 51 0 86 4 88
10 2 6 3 97 3 203 -1 145 2 189 10 180 7 -7 36 -57 65 -112 94 -178 89 -172
154 -171 50 1 60 5 77 29 11 15 17 27 13 27 -3 0 2 12 13 28 10 15 34 56 53
92 18 36 36 67 39 70 3 3 11 16 17 30 14 31 14 41 16 -200 l2 -185 85 0 c95 0
102 5 89 62 -4 18 -3 33 1 33 4 0 5 15 1 33 -4 17 -6 43 -4 57 4 32 4 120 1
193 -2 31 -1 57 2 57 6 0 3 109 -4 125 -5 14 -238 13 -243 0 -12 -33 -153
-280 -161 -283 -5 -1 -15 10 -20 25 -6 15 -32 64 -57 108 -25 44 -52 94 -60
112 -8 17 -20 35 -27 40 -20 12 -238 11 -239 -2z"/>
</g>
</svg>
