<svg width="178" height="100" viewBox="0 0 178 100" fill="none" xmlns="http://www.w3.org/2000/svg">
<path d="M128.41 73.49L127.62 3.8C127.28 1.98 149.22 10.52 161.73 31.49C174.23 52.46 175.57 70.84 174.23 72.75" stroke="black" stroke-width="5" stroke-miterlimit="10"/>
<path d="M123.77 73.49L124.56 3.8C125.22 1.57 101.76 11.72 90.45 31.49" stroke="#4D81E5" stroke-width="7" stroke-miterlimit="10"/>
<path d="M52.77 73.49L53.56 3.80001C53.7 1.38001 28.19 13.66 18.4 33.47" stroke="black" stroke-width="5" stroke-miterlimit="10"/>
<path d="M53.56 53.37C53.91 68.88 32.65 73.07 19.57 71.64C4.99 70.14 0.230002 59 3.47 50.09C6.68 41.16 16.4 33.35 27.76 29.18L34.32 26.97" stroke="black" stroke-width="5" stroke-miterlimit="10"/>
<path d="M94.13 31.42C94.06 35.29 87.12 35.29 87.05 31.42C87.12 27.55 94.06 27.55 94.13 31.42Z" fill="#4D81E5"/>
<path d="M57.41 73.49L56.62 3.8C55.96 1.57 79.42 11.72 90.73 31.49" stroke="#4D81E5" stroke-width="7" stroke-miterlimit="10"/>
<path d="M166.66 40.77C165.14 37.38 155.59 29.85 147.25 26.97" stroke="black" stroke-width="5" stroke-miterlimit="10"/>
<path d="M148.521 25.3904C148.901 25.6781 149.197 26.14 149.261 26.827C149.299 27.5136 149.075 28.0134 148.741 28.3541C148.398 28.7044 147.911 28.9131 147.397 28.9514C146.882 28.9897 146.37 28.8555 145.979 28.5597C145.599 28.272 145.303 27.81 145.239 27.123C145.201 26.4364 145.425 25.9366 145.759 25.5959C146.102 25.2456 146.589 25.037 147.103 24.9986C147.618 24.9603 148.13 25.0946 148.521 25.3904Z" fill="black" stroke="black"/>
<path d="M36.3499 26.9692C36.3354 27.6607 36.0731 28.1452 35.7126 28.4619C35.3422 28.7874 34.8391 28.96 34.3213 28.96C33.8034 28.96 33.3012 28.7874 32.9322 28.4623C32.5733 28.1461 32.3125 27.6622 32.3001 26.9707C32.3146 26.2793 32.5769 25.7948 32.9374 25.4781C33.3078 25.1526 33.8109 24.98 34.3288 24.98C34.8466 24.98 35.3488 25.1526 35.7178 25.4777C36.0767 25.7938 36.3375 26.2778 36.3499 26.9692Z" fill="black" stroke="black"/>
<path d="M30.8938 96.8078L28.3883 86.7721H29.9921L31.5684 93.9031H31.5959L33.5438 86.7721H34.6451L36.5862 93.9031H36.6137L38.1969 86.7721H39.8007L37.2952 96.8078H36.0218L34.1083 89.5736H34.0807L32.1603 96.8078H30.8938ZM41.019 96.8078V86.7721H47.4273V88.2107H42.5402V91.0741H46.7114V92.4232H42.5402V95.3692H47.4273V96.8078H41.019ZM48.8658 96.8078V86.7721H52.7549C53.7415 86.7813 54.4825 87.0291 54.9781 87.5155C55.4783 88.0065 55.7284 88.6558 55.7284 89.4634C55.7376 89.8764 55.6389 90.2711 55.4324 90.6474C55.3269 90.8263 55.1755 90.9961 54.9781 91.1567C54.7808 91.3265 54.5376 91.4802 54.2485 91.6179V91.6454C54.7946 91.7877 55.2076 92.0745 55.4875 92.5058C55.7491 92.9509 55.8798 93.4351 55.8798 93.9582C55.8707 94.8255 55.5999 95.5115 55.0676 96.0163C54.5399 96.544 53.8814 96.8078 53.0921 96.8078H48.8658ZM52.7273 92.3544H50.387V95.3692H52.7273C53.2918 95.3601 53.7047 95.2063 53.9663 94.9081C54.2279 94.6144 54.3586 94.2656 54.3586 93.8618C54.3586 93.4488 54.2279 93.0955 53.9663 92.8018C53.7047 92.5127 53.2918 92.3636 52.7273 92.3544ZM52.5828 88.1281H50.387V90.9984H52.5828C53.138 90.9984 53.5464 90.8538 53.808 90.5648C54.0741 90.2986 54.2072 89.9636 54.2072 89.5598C54.2072 89.156 54.0741 88.8141 53.808 88.5342C53.5464 88.2726 53.138 88.1373 52.5828 88.1281ZM60.8564 96.8078V86.7721H64.3668C65.7251 86.7813 66.7438 87.3457 67.423 88.4654C67.6662 88.8417 67.8199 89.2363 67.8841 89.6493C67.9346 90.0623 67.9599 90.7758 67.9599 91.79C67.9599 92.8683 67.9209 93.6209 67.8428 94.0477C67.8061 94.2633 67.7511 94.4561 67.6777 94.6258C67.5996 94.791 67.5056 94.9631 67.3954 95.1421C67.1018 95.6147 66.6934 96.0048 66.1702 96.3122C65.6517 96.6426 65.0161 96.8078 64.2636 96.8078H60.8564ZM62.3776 88.2107V95.3692H64.1948C65.0483 95.3692 65.6678 95.0778 66.0532 94.4951C66.223 94.2794 66.3308 94.0064 66.3767 93.676C66.418 93.3502 66.4387 92.7398 66.4387 91.845C66.4387 90.9732 66.418 90.3491 66.3767 89.9728C66.3217 89.5965 66.1909 89.2914 65.9844 89.0573C65.5622 88.4746 64.9657 88.1923 64.1948 88.2107H62.3776ZM69.7357 96.8078V86.7721H76.144V88.2107H71.2569V91.0741H75.4281V92.4232H71.2569V95.3692H76.144V96.8078H69.7357ZM79.8472 96.8078L76.5363 86.7721H78.147L80.4254 94.4125H80.4529L82.7381 86.7721H84.3488L81.0311 96.8078H79.8472ZM85.4294 96.8078V86.7721H91.8377V88.2107H86.9506V91.0741H91.1219V92.4232H86.9506V95.3692H91.8377V96.8078H85.4294ZM93.2763 96.8078V86.7721H94.7975V95.3692H99.6846V96.8078H93.2763ZM100.779 91.79C100.779 90.6244 100.813 89.8443 100.882 89.4497C100.956 89.055 101.068 88.7361 101.22 88.4929C101.463 88.0294 101.853 87.6164 102.39 87.2539C102.917 86.8868 103.576 86.6987 104.365 86.6895C105.164 86.6987 105.829 86.8868 106.361 87.2539C106.889 87.6164 107.27 88.0294 107.504 88.4929C107.674 88.7361 107.791 89.055 107.855 89.4497C107.915 89.8443 107.944 90.6244 107.944 91.79C107.944 92.9372 107.915 93.7127 107.855 94.1165C107.791 94.5203 107.674 94.8438 107.504 95.087C107.27 95.5505 106.889 95.9589 106.361 96.3122C105.829 96.6793 105.164 96.8721 104.365 96.8904C103.576 96.8721 102.917 96.6793 102.39 96.3122C101.853 95.9589 101.463 95.5505 101.22 95.087C101.146 94.9356 101.08 94.791 101.02 94.6534C100.965 94.5111 100.919 94.3322 100.882 94.1165C100.813 93.7127 100.779 92.9372 100.779 91.79ZM102.307 91.79C102.307 92.7766 102.344 93.4442 102.417 93.793C102.481 94.1417 102.612 94.4239 102.81 94.6396C102.97 94.8461 103.181 95.0136 103.443 95.1421C103.7 95.2935 104.007 95.3692 104.365 95.3692C104.728 95.3692 105.042 95.2935 105.308 95.1421C105.561 95.0136 105.762 94.8461 105.914 94.6396C106.111 94.4239 106.247 94.1417 106.32 93.793C106.389 93.4442 106.423 92.7766 106.423 91.79C106.423 90.8034 106.389 90.1311 106.32 89.7732C106.247 89.4336 106.111 89.156 105.914 88.9403C105.762 88.7338 105.561 88.5617 105.308 88.4241C105.042 88.291 104.728 88.2199 104.365 88.2107C104.007 88.2199 103.7 88.291 103.443 88.4241C103.181 88.5617 102.97 88.7338 102.81 88.9403C102.612 89.156 102.481 89.4336 102.417 89.7732C102.344 90.1311 102.307 90.8034 102.307 91.79ZM111.248 88.2107V91.4527H113.499C114.064 91.4435 114.488 91.2691 114.773 90.9296C115.043 90.5992 115.179 90.2321 115.179 89.8283C115.179 89.4933 115.124 89.2111 115.013 88.9816C114.899 88.7751 114.738 88.6122 114.532 88.4929C114.22 88.2956 113.857 88.2015 113.444 88.2107H111.248ZM109.727 96.8078V86.7721H113.361C113.756 86.7721 114.137 86.8088 114.504 86.8822C114.871 86.9786 115.243 87.1759 115.619 87.4742C115.936 87.699 116.193 88.0203 116.39 88.4378C116.597 88.8417 116.7 89.3189 116.7 89.8696C116.7 90.6129 116.438 91.2898 115.915 91.9001C115.378 92.5425 114.594 92.8729 113.561 92.8913H111.248V96.8078H109.727ZM118.083 96.8078V86.7721H119.515L122.392 93.3112L125.214 86.7721H126.653V96.8078H125.132V90.551H125.097L122.998 95.3692H121.731L119.632 90.551H119.605V96.8078H118.083ZM128.766 96.8078V86.7721H135.174V88.2107H130.287V91.0741H134.459V92.4232H130.287V95.3692H135.174V96.8078H128.766ZM136.613 96.8078V86.7721H138.045L142.588 93.9031H142.615V86.7721H144.136V96.8078H142.698L138.162 89.6768H138.134V96.8078H136.613ZM147.963 96.8078V88.1281H145.217V86.7721H152.238V88.1281H149.491V96.8078H147.963Z" fill="black"/>
</svg>
